<svg width="100" height="100" viewBox="0 0 100 100" fill="none" xmlns="http://www.w3.org/2000/svg">
<path d="M30.5771 42.0203L50.0025 22.597L69.4279 42.0385L80.7277 30.74L50.0025 0L19.2773 30.7218L30.5771 42.0203Z" fill="#F3BA2F"/>
<path d="M0 49.9911L11.2989 38.6931L22.5981 49.9907L11.2993 61.2887L0 49.9911Z" fill="#F3BA2F"/>
<path d="M30.5791 57.9796L50.0046 77.4029L69.43 57.9615L80.7479 69.26H80.7297L50.0046 100L19.2794 69.2782L19.2612 69.26L30.5791 57.9796Z" fill="#F3BA2F"/>
<path d="M77.4019 50.01L88.7007 38.712L100 50.0096L88.7011 61.3077L77.4019 50.01Z" fill="#F3BA2F"/>
<path d="M61.4661 50.0002L50.0031 38.5203L41.5328 47.0078L40.5534 47.969L38.5401 49.982L38.522 50.0002L38.5401 50.0183L50.0031 61.48L61.4661 50.0002V50.0002Z" fill="#F3BA2F"/>
</svg>
